<!-- <svg xmlns = "http://www.w3.org/2000/svg" data-encore-id="icon" role="img" aria-hidden="true" viewBox="0 0 24 24" class="Svg-sc-ytk21e-0 bneLcE"><path d="M13.5 1.515a3 3 0 0 0-3 0L3 5.845a2 2 0 0 0-1 1.732V21a1 1 0 0 0 1 1h6a1 1 0 0 0 1-1v-6h4v6a1 1 0 0 0 1 1h6a1 1 0 0 0 1-1V7.577a2 2 0 0 0-1-1.732l-7.5-4.33z"></path></svg> -->

<svg xmlns="http://www.w3.org/2000/svg" width="24" height="24" fill="none" stroke="currentColor" stroke-width="2" stroke-linecap="round" stroke-linejoin="round" viewBox="0 0 24 24">
  <path d="M3 12l9-9 9 9" />
  <path d="M9 21V12h6v9" />
</svg>
